HIERARCHY
ROOT Hips
{
	OFFSET 15.585500 22.159004 44.358299
	CHANNELS 6 Xposition Yposition Zposition Zrotation Xrotation Yrotation
	JOINT Chest
	{
		OFFSET -0.128500 0.160400 6.566002
		CHANNELS 6 Xposition Yposition Zposition Zrotation Xrotation Yrotation
		JOINT Chest2
		{
			OFFSET 0.000000 0.000000 3.554802
			CHANNELS 6 Xposition Yposition Zposition Zrotation Xrotation Yrotation
			JOINT Neck
			{
				OFFSET 0.000000 0.000000 8.267998
				CHANNELS 6 Xposition Yposition Zposition Zrotation Xrotation Yrotation
				JOINT Head
				{
					OFFSET 0.000000 0.000002 2.173897
					CHANNELS 6 Xposition Yposition Zposition Zrotation Xrotation Yrotation
					End Site
					{
						OFFSET 0.000000 0.000000 7.718697
					}
				}
			}
			JOINT LeftCollar
			{
				OFFSET 2.057500 0.117599 5.946301
				CHANNELS 6 Xposition Yposition Zposition Zrotation Xrotation Yrotation
				JOINT LeftShoulder
				{
					OFFSET 4.957699 0.000000 0.000000
					CHANNELS 6 Xposition Yposition Zposition Zrotation Xrotation Yrotation
					JOINT LeftElbow
					{
						OFFSET 0.000000 0.000000 -8.465500
						CHANNELS 6 Xposition Yposition Zposition Zrotation Xrotation Yrotation
						JOINT LeftWrist
						{
							OFFSET 0.000000 -0.000002 -14.594898
							CHANNELS 6 Xposition Yposition Zposition Zrotation Xrotation Yrotation
							End Site
							{
								OFFSET 0.000000 0.000000 -2.173901
							}
						}
					}
				}
			}
			JOINT RightCollar
			{
				OFFSET -3.048500 -0.728800 6.604099
				CHANNELS 6 Xposition Yposition Zposition Zrotation Xrotation Yrotation
				JOINT RightShoulder
				{
					OFFSET -3.710299 0.000000 0.000000
					CHANNELS 6 Xposition Yposition Zposition Zrotation Xrotation Yrotation
					JOINT RightElbow
					{
						OFFSET 0.000000 0.000000 -10.450901
						CHANNELS 6 Xposition Yposition Zposition Zrotation Xrotation Yrotation
						JOINT RightWrist
						{
							OFFSET 0.000000 0.000000 -12.539200
							CHANNELS 6 Xposition Yposition Zposition Zrotation Xrotation Yrotation
							End Site
							{
								OFFSET 0.000000 -0.000002 -2.173901
							}
						}
					}
				}
			}
		}
	}
	JOINT LeftHip
	{
		OFFSET 2.442599 -0.601400 -2.767502
		CHANNELS 6 Xposition Yposition Zposition Zrotation Xrotation Yrotation
		JOINT LeftKnee
		{
			OFFSET 0.000000 -0.000002 -17.033703
			CHANNELS 6 Xposition Yposition Zposition Zrotation Xrotation Yrotation
			JOINT LeftAnkle
			{
				OFFSET 0.000000 -0.000002 -19.318800
				CHANNELS 6 Xposition Yposition Zposition Zrotation Xrotation Yrotation
				End Site
				{
					OFFSET 0.000000 -8.281900 0.000000
				}
			}
		}
	}
	JOINT RightHip
	{
		OFFSET -3.126200 -0.601400 -2.283501
		CHANNELS 6 Xposition Yposition Zposition Zrotation Xrotation Yrotation
		JOINT RightKnee
		{
			OFFSET 0.000000 -0.000002 -16.919401
			CHANNELS 6 Xposition Yposition Zposition Zrotation Xrotation Yrotation
			JOINT RightAnkle
			{
				OFFSET 0.000000 -0.000002 -18.035900
				CHANNELS 6 Xposition Yposition Zposition Zrotation Xrotation Yrotation
				End Site
				{
					OFFSET 0.000000 -9.230099 0.000000
				}
			}
		}
	}
}
MOTION
Frames: 9
Frame Time: 0.041667
23.455200 39.673409 8.015800 5.560422 0.909454 -1.681352 -0.128498 0.160397 6.566006 -5.537814 7.627888 0.437036 0.000004 0.000003 3.554807 2.323905 -10.952795 -0.799084 0.000003 -0.000004 8.268006 -0.118013 16.726713 1.465239 0.000000 0.000004 2.173900 -0.831073 4.708186 1.183037 2.057506 0.117597 5.946305 -14.186182 0.171481 7.295137 4.957689 0.000009 0.000004 -4.741639 -29.658819 -92.736354 0.000001 -0.000001 -8.465499 -130.127644 -173.641304 -179.565537 -0.000002 0.000001 -14.594900 -100.860755 -159.961377 -90.748803 -3.048500 -0.728801 6.604105 20.803269 -3.188472 -8.641080 -3.710296 -0.000008 -0.000005 -20.796234 -8.003464 82.571195 0.000005 0.000003 -10.450891 -73.620676 -48.539996 -27.794608 -0.000001 0.000007 -12.539192 295.495840 -11.362638 -58.946793 2.442594 -0.601404 -2.767504 132.486409 -0.042362 98.948397 -0.000003 -0.000003 -17.033703 -141.671524 32.797329 129.911359 0.000001 0.000002 -19.318806 136.334838 118.483169 261.017947 -3.126201 -0.601406 -2.283501 -136.463095 -18.797695 -101.156591 -0.000001 -0.000004 -16.919401 166.676929 36.750820 -176.853214 -0.000000 -0.000003 -18.035900 -33.476045 35.225318 -208.802967
23.461498 39.628109 8.022896 5.576049 1.298096 -1.679366 -0.128497 0.160399 6.566003 -5.534700 7.308840 0.377249 0.000000 -0.000006 3.554806 2.326639 -10.937459 -0.810841 0.000004 0.000006 8.268000 -0.146651 15.471056 1.574403 -0.000001 0.000008 2.173894 -0.752204 4.425540 1.192728 2.057508 0.117603 5.946306 -14.144849 0.073097 7.281284 4.957695 0.000004 -0.000002 -1.303195 -27.716552 -90.285272 0.000001 0.000003 -8.465503 -126.240447 -171.463990 -178.096199 0.000005 0.000002 -14.594902 -102.263990 -159.266146 -96.040130 -3.048497 -0.728796 6.604100 20.872805 -3.290254 -8.532694 -3.710287 0.000003 0.000001 -20.777205 -8.404659 82.084776 0.000003 0.000010 -10.450896 -72.369590 -44.253182 -23.799710 0.000005 0.000001 -12.539197 295.379645 -9.679716 -57.056709 2.442598 -0.601401 -2.767499 132.565079 0.123039 99.090192 -0.000002 0.000001 -17.033710 -141.358920 32.511414 129.866212 0.000002 0.000002 -19.318804 136.804891 118.595757 261.305225 -3.126191 -0.601402 -2.283500 -136.629711 -18.514577 -101.394186 0.000001 0.000001 -16.919395 166.777920 36.714736 -176.980078 -0.000002 -0.000001 -18.035900 -33.535225 35.307352 -208.761235
23.467501 39.581909 8.031696 5.602286 1.688108 -1.691557 -0.128500 0.160403 6.566004 -5.544175 6.969639 0.334377 -0.000000 -0.000003 3.554809 2.328654 -10.913644 -0.830582 0.000001 -0.000004 8.267991 -0.153905 14.334856 1.672681 0.000003 0.000005 2.173902 -0.686540 4.183911 1.208957 2.057504 0.117603 5.946300 -14.121893 -0.015150 7.268680 4.957697 0.000007 0.000002 1.764772 -25.136006 -87.917976 -0.000003 0.000003 -8.465510 -121.924218 -169.275064 -176.419948 0.000001 0.000001 -14.594902 -104.002922 -158.416498 -101.867265 -3.048503 -0.728798 6.604097 20.992993 -3.340405 -8.419642 -3.710303 0.000002 0.000001 -20.662572 -8.893725 81.793353 -0.000001 0.000004 -10.450897 -71.763104 -40.284517 -20.685332 0.000000 0.000009 -12.539197 295.371831 -7.906003 -54.632918 2.442595 -0.601395 -2.767502 132.633873 0.291116 99.218060 -0.000002 -0.000002 -17.033707 -141.039295 32.223412 129.820873 0.000003 0.000002 -19.318810 137.276175 118.708674 261.588049 -3.126198 -0.601400 -2.283501 -136.806380 -18.241750 -101.630729 0.000001 -0.000005 -16.919399 166.862273 36.663540 -177.088159 -0.000004 -0.000003 -18.035896 -33.571022 35.366928 -208.724529
23.473301 39.534603 8.041805 5.637634 2.077787 -1.717320 -0.128501 0.160402 6.566001 -5.564523 6.615314 0.307323 0.000001 -0.000005 3.554800 2.330099 -10.882933 -0.857425 0.000003 0.000009 8.267997 -0.139739 13.312927 1.760553 0.000001 -0.000002 2.173895 -0.635334 3.980070 1.232282 2.057506 0.117604 5.946304 -14.107451 -0.096491 7.256962 4.957696 0.000003 0.000000 4.669537 -22.189847 -85.828137 -0.000004 0.000003 -8.465506 -117.306914 -167.260077 -174.238918 0.000006 0.000005 -14.594898 -105.968589 -157.248904 -108.254892 -3.048500 -0.728792 6.604101 21.153876 -3.349864 -8.296880 -3.710291 -0.000003 -0.000003 -20.493948 -9.450498 81.668920 0.000006 -0.000000 -10.450891 -71.566606 -36.676149 -18.209491 0.000000 0.000005 -12.539196 296.080286 -6.869633 -50.457466 2.442592 -0.601398 -2.767509 132.693855 0.460273 99.334351 -0.000002 -0.000002 -17.033703 -140.719300 31.939925 129.778608 0.000003 -0.000001 -19.318802 137.737294 118.818394 261.857240 -3.126199 -0.601403 -2.283500 -136.990768 -17.980391 -101.865544 0.000000 0.000003 -16.919401 166.929263 36.595802 -177.177074 -0.000004 0.000000 -18.035898 -33.581076 35.401683 -208.693561
23.478798 39.486305 8.053196 5.679236 2.464615 -1.755241 -0.128498 0.160403 6.566001 -5.592623 6.252255 0.294882 0.000001 -0.000001 3.554803 2.512963 -10.869084 -0.675198 -0.000001 0.000002 8.268000 -0.245280 12.417221 1.653200 0.000005 0.000002 2.173898 -0.598479 3.809819 1.262508 2.057502 0.117603 5.946307 -14.274030 -0.110222 7.075834 4.957698 -0.000000 0.000007 7.100591 -19.156246 -83.946583 0.000000 0.000001 -8.465491 -112.674011 -165.458560 -171.992264 0.000005 0.000003 -14.594903 -108.730656 -156.557129 -115.115435 -3.048503 -0.728795 6.604097 21.154780 -3.376924 -8.337941 -3.710298 -0.000000 0.000001 -20.302017 -10.047999 81.680989 0.000008 0.000004 -10.450891 -71.631882 -33.442030 -16.213191 -0.000000 0.000005 -12.539192 296.386169 -5.482716 -46.535045 2.442596 -0.601398 -2.767505 132.747445 0.628926 99.441441 -0.000001 0.000001 -17.033707 -140.405521 31.666564 129.742134 0.000000 0.000001 -19.318804 138.178415 118.921749 262.105395 -3.126195 -0.601396 -2.283497 -137.178913 -17.732751 -102.097688 0.000001 -0.000002 -16.919394 166.978345 36.511531 -177.247739 -0.000003 0.000001 -18.035894 -33.565192 35.411167 -208.668467
23.484200 39.437202 8.065701 5.723157 2.846380 -1.803210 -0.128498 0.160396 6.566001 -5.624630 5.887002 0.295587 0.000004 0.000003 3.554804 2.557766 -10.833865 -0.662752 0.000001 0.000008 8.267999 -0.233581 11.601463 1.679029 -0.000002 0.000004 2.173896 -0.390105 3.622238 0.978353 2.057503 0.117604 5.946302 -14.302364 -0.171703 7.026764 4.957697 0.000002 -0.000004 8.850126 -16.296847 -82.440486 -0.000004 0.000001 -8.465491 -108.301180 -164.079585 -169.972208 -0.000002 -0.000000 -14.594897 -111.378406 -155.846175 -122.125859 -3.048501 -0.728799 6.604097 21.316621 -3.349402 -8.230433 -3.710293 -0.000000 0.000004 -20.107428 -10.655023 81.798038 0.000003 0.000007 -10.450896 -71.867387 -30.579218 -14.589545 -0.000005 0.000001 -12.539193 296.882041 -4.397953 -42.269401 2.442597 -0.601404 -2.767508 132.798152 0.796258 99.541517 -0.000001 -0.000004 -17.033707 -140.103490 31.407163 129.713092 0.000002 -0.000002 -19.318806 138.591915 119.016852 262.328196 -3.126193 -0.601407 -2.283502 -137.366101 -17.501059 -102.325769 0.000002 0.000001 -16.919397 167.009969 36.412374 -177.302927 -0.000002 -0.000002 -18.035900 -33.525239 35.397585 -208.648673
23.489401 39.387699 8.078896 5.765417 3.221500 -1.858748 -0.128496 0.160395 6.566003 -5.656180 5.525345 0.308228 -0.000000 -0.000001 3.554808 2.603692 -10.796328 -0.649767 0.000002 0.000004 8.267998 -0.212572 10.870582 1.691902 0.000003 0.000003 2.173905 -0.350966 3.498193 0.974548 2.057506 0.117605 5.946302 -14.328294 -0.232676 6.976233 4.957697 0.000006 0.000003 10.263672 -13.719366 -81.348523 0.000001 0.000002 -8.465490 -104.268671 -163.169203 -167.988339 0.000001 -0.000002 -14.594901 -114.119477 -155.457892 -129.159451 -3.048499 -0.728798 6.604096 21.482084 -3.313518 -8.114161 -3.710292 0.000001 -0.000001 -19.920831 -11.239664 81.990923 0.000006 0.000006 -10.450894 -72.218807 -28.073420 -13.264226 -0.000003 0.000004 -12.539188 297.446324 -3.323670 -37.800729 2.442598 -0.601399 -2.767503 132.849693 0.962059 99.637078 -0.000002 -0.000000 -17.033705 -139.818426 31.164917 129.692889 0.000005 0.000000 -19.318798 138.972589 119.102571 262.523512 -3.126195 -0.601404 -2.283502 -137.547183 -17.287332 -102.549095 -0.000001 0.000000 -16.919395 167.025227 36.301619 -177.346627 -0.000004 -0.000002 -18.035900 -33.464621 35.364285 -208.633278
23.494301 39.338005 8.092495 5.802614 3.588568 -1.918728 -0.128500 0.160402 6.566008 -5.683826 5.172326 0.330433 -0.000001 -0.000008 3.554803 2.647518 -10.757142 -0.637115 0.000001 -0.000004 8.267995 -0.184172 10.208131 1.693719 -0.000001 -0.000002 2.173895 -0.319042 3.398618 0.972643 2.057506 0.117597 5.946302 -14.348969 -0.294785 6.926332 4.957696 0.000010 0.000002 11.279124 -11.535238 -80.563454 0.000002 -0.000001 -8.465494 -99.862563 -162.869494 -166.033976 -0.000003 -0.000005 -14.594900 -117.669925 -155.325441 -136.018668 -3.048502 -0.728798 6.604099 21.642851 -3.276887 -7.990347 -3.710289 -0.000000 -0.000001 -19.741970 -11.771148 82.264485 0.000006 0.000005 -10.450888 -72.659873 -25.874017 -12.190372 0.000001 0.000004 -12.539195 297.887007 -2.514541 -33.296773 2.442592 -0.601395 -2.767499 132.951504 1.137160 99.741594 -0.000001 0.000007 -17.033703 -139.580680 30.912927 129.728132 0.000002 0.000004 -19.318806 139.317541 119.178345 262.691234 -3.126202 -0.601398 -2.283494 -137.717938 -17.092801 -102.766808 0.000002 0.000003 -16.919395 167.025309 36.183156 -177.382472 -0.000001 -0.000001 -18.035896 -33.388120 35.315787 -208.620997
23.499100 39.288704 8.106400 5.831736 3.947439 -1.980297 -0.128499 0.160398 6.566002 -5.704564 4.830933 0.360333 -0.000001 -0.000005 3.554808 2.686079 -10.717282 -0.625332 0.000003 0.000004 8.267999 -0.152122 9.614498 1.686934 -0.000002 0.000005 2.173898 -0.290137 3.307703 0.968660 2.057506 0.117599 5.946311 -14.363389 -0.359253 6.879024 4.957703 0.000005 0.000002 11.995222 -9.759684 -79.946558 -0.000001 0.000000 -8.465506 -96.878508 -162.569376 -164.664823 0.000003 0.000002 -14.594895 -120.208884 -155.460979 -142.606386 -3.048500 -0.728802 6.604103 21.791819 -3.245456 -7.860690 -3.710288 -0.000006 0.000001 -19.536557 -12.231048 82.509682 0.000000 0.000000 -10.450892 -73.144680 -24.035591 -11.262149 0.000000 0.000006 -12.539195 298.237014 -1.881301 -28.852515 2.442597 -0.601398 -2.767503 133.014341 1.300518 99.836657 -0.000002 -0.000005 -17.033710 -139.339944 30.708650 129.727163 0.000001 0.000001 -19.318802 139.625391 119.244666 262.833548 -3.126196 -0.601404 -2.283497 -137.875223 -16.917318 -102.979315 0.000001 -0.000002 -16.919394 167.012455 36.061326 -177.414737 -0.000003 -0.000000 -18.035898 -33.300621 35.257044 -208.610684
